<?xml version="1.0" encoding="UTF-8" standalone="no"?>
<!-- Created with Inkscape (http://www.inkscape.org/) -->

<svg
        xmlns:dc="http://purl.org/dc/elements/1.1/"
        xmlns:cc="http://creativecommons.org/ns#"
        xmlns:rdf="http://www.w3.org/1999/02/22-rdf-syntax-ns#"
        xmlns="http://www.w3.org/2000/svg"
        xmlns:sodipodi="http://sodipodi.sourceforge.net/DTD/sodipodi-0.dtd"
        xmlns:inkscape="http://www.inkscape.org/namespaces/inkscape"
        version="1.1"
        id="svg3713"
        width="229.72182"
        height="115.4038"
        viewBox="0 0 229.72182 115.4038"
        sodipodi:docname="Logo.svg"
        inkscape:version="0.92.5 (2060ec1f9f, 2020-04-08)">
  <metadata
     id="metadata3719">
    <rdf:RDF>
      <cc:Work
         rdf:about="">
        <dc:format>image/svg+xml</dc:format>
        <dc:type
           rdf:resource="http://purl.org/dc/dcmitype/StillImage" />
        <dc:title></dc:title>
      </cc:Work>
    </rdf:RDF>
  </metadata>
  <defs
     id="defs3717">
    <filter
       inkscape:collect="always"
       style="color-interpolation-filters:sRGB"
       id="filter6678"
       x="-0.13747294"
       width="1.2749459"
       y="-0.091163896"
       height="1.1823277">
      <feGaussianBlur
         inkscape:collect="always"
         stdDeviation="2.4612519"
         id="feGaussianBlur6680" />
    </filter>
    <filter
       inkscape:collect="always"
       style="color-interpolation-filters:sRGB"
       id="filter6682"
       x="-0.23243099"
       width="1.464862"
       y="-0.25008678"
       height="1.5001736">
      <feGaussianBlur
         inkscape:collect="always"
         stdDeviation="2.4612519"
         id="feGaussianBlur6684" />
    </filter>
    <filter
       inkscape:collect="always"
       style="color-interpolation-filters:sRGB"
       id="filter6686"
       x="-0.32637009"
       width="1.6527402"
       y="-0.092173681"
       height="1.1843474">
      <feGaussianBlur
         inkscape:collect="always"
         stdDeviation="2.4612519"
         id="feGaussianBlur6688" />
    </filter>
    <filter
       inkscape:collect="always"
       style="color-interpolation-filters:sRGB"
       id="filter6690"
       x="-0.22057185"
       width="1.4411438"
       y="-0.14726046"
       height="1.2945209">
      <feGaussianBlur
         inkscape:collect="always"
         stdDeviation="2.4612519"
         id="feGaussianBlur6692" />
    </filter>
    <filter
       inkscape:collect="always"
       style="color-interpolation-filters:sRGB"
       id="filter6694"
       x="-1.112235"
       width="3.2244699"
       y="-1.1393626"
       height="3.2787254">
      <feGaussianBlur
         inkscape:collect="always"
         stdDeviation="2.4612519"
         id="feGaussianBlur6696" />
    </filter>
    <filter
       inkscape:collect="always"
       style="color-interpolation-filters:sRGB"
       id="filter6698"
       x="-6.2284989"
       width="13.456998"
       y="-0.062094651"
       height="1.1241893">
      <feGaussianBlur
         inkscape:collect="always"
         stdDeviation="2.4612519"
         id="feGaussianBlur6700" />
    </filter>
    <filter
       inkscape:collect="always"
       style="color-interpolation-filters:sRGB"
       id="filter6702"
       x="-0.10148877"
       width="1.2029775"
       y="-0.22054195"
       height="1.4410839">
      <feGaussianBlur
         inkscape:collect="always"
         stdDeviation="2.4612519"
         id="feGaussianBlur6704" />
    </filter>
    <filter
       inkscape:collect="always"
       style="color-interpolation-filters:sRGB"
       id="filter6706"
       x="-0.7383756"
       width="2.4767511"
       y="-0.59070045"
       height="2.181401">
      <feGaussianBlur
         inkscape:collect="always"
         stdDeviation="2.4612519"
         id="feGaussianBlur6708" />
    </filter>
    <filter
       inkscape:collect="always"
       style="color-interpolation-filters:sRGB"
       id="filter6710"
       x="-0.30355144"
       width="1.6071029"
       y="-0.21096446"
       height="1.4219289">
      <feGaussianBlur
         inkscape:collect="always"
         stdDeviation="2.4612519"
         id="feGaussianBlur6712" />
    </filter>
    <filter
       inkscape:collect="always"
       style="color-interpolation-filters:sRGB"
       id="filter6714"
       x="-0.3603946"
       width="1.7207892"
       y="-0.2628859"
       height="1.5257719">
      <feGaussianBlur
         inkscape:collect="always"
         stdDeviation="2.4612519"
         id="feGaussianBlur6716" />
    </filter>
    <filter
       inkscape:collect="always"
       style="color-interpolation-filters:sRGB"
       id="filter6718"
       x="-0.36039445"
       width="1.720789"
       y="-0.2628859"
       height="1.5257719">
      <feGaussianBlur
         inkscape:collect="always"
         stdDeviation="2.4612519"
         id="feGaussianBlur6720" />
    </filter>
  </defs>
  <sodipodi:namedview
     pagecolor="#ffffff"
     bordercolor="#666666"
     borderopacity="1"
     objecttolerance="10"
     gridtolerance="10"
     guidetolerance="10"
     inkscape:pageopacity="0"
     inkscape:pageshadow="2"
     inkscape:window-width="1920"
     inkscape:window-height="1057"
     id="namedview3715"
     showgrid="true"
     showguides="false"
     inkscape:zoom="4.625"
     inkscape:cx="126.03048"
     inkscape:cy="51.518167"
     inkscape:window-x="1272"
     inkscape:window-y="-8"
     inkscape:window-maximized="1"
     inkscape:current-layer="layer1">
    <inkscape:grid
       type="xygrid"
       id="grid3724"
       originx="-1.5315055"
       originy="-23.414831" />
  </sodipodi:namedview>
  <g
     inkscape:groupmode="layer"
     id="layer4"
     inkscape:label="BG"
     style="display:inline" />
  <g
     transform="translate(-1.5315055,-25.181376)"
     style="display:none;opacity:1"
     inkscape:label="T_shadow"
     id="g4036"
     inkscape:groupmode="layer">
    <path
       sodipodi:nodetypes="cssscsc"
       inkscape:connector-curvature="0"
       id="path4014"
       d="M 35,61.869369 C 13.022523,71.472973 18.311869,90.374102 15,94 13.770897,95.345646 10.422386,93.807938 10.527027,97.144144 10.617466,100.02755 14.155596,97.624237 15,99 c 2.159679,3.5187 1.176949,25.14619 30,27.13963 C 14.819015,130.80075 2.0565293,103.04665 2.0315315,97.698198 2.0134448,93.82842 13.207207,65.747747 35,61.869369 Z"
       style="opacity:0;fill:#ff0000;stroke:#ff0000;stroke-width:1px;stroke-linecap:butt;stroke-linejoin:miter;stroke-opacity:1;filter:url(#filter6678)" />
    <path
       sodipodi:nodetypes="cscsc"
       inkscape:connector-curvature="0"
       id="path4016"
       d="M 46.171171,81.261261 C 26.947118,80.590654 22.464483,89.547182 22.255336,93.81982 c -0.589488,12.04256 19.429394,15.49302 25.401265,3.904632 -5.474871,9.166278 -23.299573,8.263028 -22.113544,-3.52528 0.400558,-3.981267 1.538182,-12.49084 20.628114,-12.937911 z"
       style="opacity:0.5270004;fill:#ff0000;stroke:#ff0000;stroke-width:1px;stroke-linecap:butt;stroke-linejoin:miter;stroke-opacity:1;filter:url(#filter6682)" />
    <path
       sodipodi:nodetypes="sccsscssss"
       inkscape:connector-curvature="0"
       id="path4018"
       d="m 39.337838,72.396396 c 0.775883,0.0042 4.801802,2.031532 4.801802,4.801802 l 0.738738,45.617122 c -4.518476,-2.89914 -4.425211,-6.2839 -4.986486,-15.6982 -0.09071,-1.5215 -2.330422,-1.36774 -2.313199,0.0867 0.09952,8.40456 1.389775,18.75109 -10.799414,29.27812 4.986486,-9.6036 7.006905,-17.16727 7.116923,-23.99972 l 0.455149,-28.266044 c 0.03332,-2.06921 -4.459102,-2.60142 -4.617117,-4.063063 -0.130592,-1.207974 8.253827,-7.764142 9.603604,-7.756757 z"
       style="opacity:0.5270004;fill:#ff0000;fill-opacity:1;stroke:#ff0000;stroke-width:1px;stroke-linecap:butt;stroke-linejoin:miter;stroke-opacity:1;filter:url(#filter6686)" />
    <path
       sodipodi:nodetypes="cscsssc"
       inkscape:connector-curvature="0"
       id="path4020"
       d="m 46.171171,81.261261 c 4.617117,-0.738739 26.555701,10.639984 26.77928,20.500009 0.142902,6.30212 -13.297298,19.76125 -18.283784,19.57657 6.648649,-5.35586 5.760515,-13.19602 6.833333,-16.25225 0.650107,-1.85201 2.89849,-0.72683 2.77027,-2.77027 C 64.129241,100.06775 62.070341,101.27675 61.5,100.28378 59.859932,97.428396 60.022522,84.585585 46.171171,81.261261 Z"
       style="opacity:0.5270004;fill:#ff0000;stroke:#ff0000;stroke-width:1px;stroke-linecap:butt;stroke-linejoin:miter;stroke-opacity:1;filter:url(#filter6690)" />
    <ellipse
       cx="47.991695"
       cy="137.49294"
       rx="2.6554663"
       ry="2.5922408"
       id="ellipse4022"
       style="opacity:0.5270004;fill:#ff0000;stroke:#ff0000;filter:url(#filter6694)" />
    <rect
       ry="0.94838083"
       y="38.479671"
       x="47.529488"
       height="95.129044"
       width="0.94838333"
       id="rect4024"
       style="opacity:0.5270004;fill:#ff0000;stroke:#ff0000;filter:url(#filter6698)" />
    <path
       sodipodi:nodetypes="csssssssc"
       inkscape:connector-curvature="0"
       id="path4026"
       d="M 7.5720722,72.950451 C 8.8754884,60.570832 17.409229,46.784661 38.22973,46.355856 c 11.65129,-0.239962 12.412516,9.231802 23.454955,6.463964 1.771138,-0.443944 2.929882,-3.704363 1.292792,-3.13964 0,0 -3.038339,-1.113283 -0.369369,-3.509009 0,0 3.513526,-0.234377 3.13964,2.585586 0,0 -1.108224,7.120418 -6.648649,10.527027 -9.355365,5.75228 -15.201208,1.282352 -24.932432,-2.954955 C 27.302173,53.339794 11.81982,57.806307 7.5720722,72.950451 Z"
       style="opacity:0.5270004;fill:#ff0000;fill-opacity:1;stroke:#ff0000;stroke-width:1px;stroke-linecap:butt;stroke-linejoin:miter;stroke-opacity:1;filter:url(#filter6702)" />
    <path
       sodipodi:nodetypes="ccccc"
       inkscape:connector-curvature="0"
       id="path4028"
       d="m 48,27 c 0,0 -2.015625,7.007813 -4,10 4,0 3.5625,-0.69029 4,-0.690283 C 48.460938,36.317536 48,37 52,37 49.992188,34.007813 48,27 48,27 Z"
       style="opacity:0.5270004;fill:#ff0000;stroke:#ff0000;stroke-width:1px;stroke-linecap:butt;stroke-linejoin:miter;stroke-opacity:1;filter:url(#filter6706)" />
    <path
       sodipodi:nodetypes="cccccccscsccssssccc"
       inkscape:connector-curvature="0"
       id="path4030"
       d="M 81.489279,113 C 82,114 85,117.46489 86,118 c -1,0.61155 -4.052057,4.00623 -4.510721,5 C 81,122 78.278632,119.344 77.514192,119 75.679537,118.27378 76,122 76,122 v 13 c 0,0.84088 2,1 2,1 0,0 -0.522415,1.42775 -1,2 -1.067912,1.27959 -4,3 -4,3 0,0 -2.932088,-1.72041 -4,-3 -0.477585,-0.57225 -1,-2 -1,-2 0,0 2.038222,-0.12089 2,-1 v -13 c 0,-2.60022 0.382583,-4 -1.506197,-3 -0.534104,0.28278 -1.773967,1.79804 -1.949322,0 -0.04907,-0.50311 0.333284,-0.63103 1.455519,-2 2.501502,-3.05148 4.706681,-5.51642 7,-2 0,0 0.870647,2.61155 2.552414,2 0.726218,-0.19111 3.447586,-3 3.936865,-4 z"
       style="opacity:0.5270004;fill:#ff0000;stroke:#ff0000;stroke-width:1px;stroke-linecap:butt;stroke-linejoin:miter;stroke-opacity:1;filter:url(#filter6710)" />
    <path
       sodipodi:nodetypes="ccscssssssscc"
       inkscape:connector-curvature="0"
       id="path4032"
       d="m 87.513513,120.10811 c -0.108108,-0.54054 3.189189,1.72973 8.108108,0 l 0.05405,13.08108 c 0.0217,5.25118 5.999999,4.54054 7.675679,4.10811 -0.97297,1.02703 -1.2981,1.52657 -1.83784,1.72973 -0.68865,0.25921 -2.237428,1.81581 -2.864866,2.32432 -0.851062,0.68975 -3.302734,1.2031 -4.216216,1.13514 -1.091374,-0.0812 -2.649697,-1.1561 -3.243243,-1.89189 -0.715676,-0.88719 -1.448401,-1.90211 -1.783784,-0.54055 -0.861883,3.49901 -3.479796,0.78413 -2,-1.02702 0.777762,-0.95192 1.783788,-1.24325 1.783788,-3.02703 v -13.45946 c -1.72973,-0.7027 -1.675676,-2.43243 -1.675676,-2.43243 z"
       style="display:inline;opacity:0.5270004;fill:#ff0000;stroke:#ff0000;stroke-width:1px;stroke-linecap:butt;stroke-linejoin:miter;stroke-opacity:1;filter:url(#filter6714)" />
    <path
       sodipodi:nodetypes="ccscssssssscc"
       inkscape:connector-curvature="0"
       id="path4034"
       d="m 109.73666,138.22549 c 0.10811,0.54054 -3.18919,-1.72973 -8.10811,0 l -0.0541,-13.08108 c -0.0217,-5.25118 -6.000004,-4.54054 -7.675684,-4.10811 0.97297,-1.02703 1.2981,-1.52657 1.83784,-1.72973 0.68865,-0.25921 2.23743,-1.81581 2.86487,-2.32432 0.85106,-0.68975 3.302734,-1.2031 4.216214,-1.13514 1.09138,0.0812 2.6497,1.1561 3.24325,1.89189 0.71567,0.88719 1.4484,1.90211 1.78378,0.54055 0.86189,-3.49901 3.4798,-0.78413 2,1.02702 -0.77776,0.95192 -1.78379,1.24325 -1.78379,3.02703 v 13.45946 c 1.72973,0.7027 1.67568,2.43243 1.67568,2.43243 z"
       style="display:inline;opacity:0.5270004;fill:#ff0000;stroke:#ff0000;stroke-width:1px;stroke-linecap:butt;stroke-linejoin:miter;stroke-opacity:1;filter:url(#filter6718)" />
  </g>
  <g
     inkscape:groupmode="layer"
     id="layer1"
     inkscape:label="T"
     style="display:inline;opacity:1"
     transform="translate(-1.5315055,-25.181376)">
    <path
       style="opacity:1;fill:#4d4d4d;stroke:#4d4d4d;stroke-width:1px;stroke-linecap:butt;stroke-linejoin:miter;stroke-opacity:1"
       d="M 35,61.869369 C 13.022523,71.472973 18.311869,90.374102 15,94 13.770897,95.345646 10.422386,93.807938 10.527027,97.144144 10.617466,100.02755 14.155596,97.624237 15,99 c 2.159679,3.5187 1.176949,25.14619 30,27.13963 C 14.819015,130.80075 2.0565293,103.04665 2.0315315,97.698198 2.0134448,93.82842 13.207207,65.747747 35,61.869369 Z"
       id="path3730"
       inkscape:connector-curvature="0"
       sodipodi:nodetypes="cssscsc" />
    <path
       style="opacity:1;fill:#4d4d4d;stroke:#4d4d4d;stroke-width:1px;stroke-linecap:butt;stroke-linejoin:miter;stroke-opacity:1"
       d="M 46.171171,81.261261 C 26.947118,80.590654 22.464483,89.547182 22.255336,93.81982 c -0.589488,12.04256 19.429394,15.49302 25.401265,3.904632 -5.474871,9.166278 -23.299573,8.263028 -22.113544,-3.52528 0.400558,-3.981267 1.538182,-12.49084 20.628114,-12.937911 z"
       id="path3738"
       inkscape:connector-curvature="0"
       sodipodi:nodetypes="cscsc" />
    <path
       style="opacity:1;fill:#cccccc;fill-opacity:1;stroke:#cccccc;stroke-width:1px;stroke-linecap:butt;stroke-linejoin:miter;stroke-opacity:1"
       d="m 39.337838,72.396396 c 0.775883,0.0042 4.801802,2.031532 4.801802,4.801802 l 0.738738,45.617122 c -4.518476,-2.89914 -4.425211,-6.2839 -4.986486,-15.6982 -0.09071,-1.5215 -2.330422,-1.36774 -2.313199,0.0867 0.09952,8.40456 1.389775,18.75109 -10.799414,29.27812 4.986486,-9.6036 7.006905,-17.16727 7.116923,-23.99972 l 0.455149,-28.266044 c 0.03332,-2.06921 -4.459102,-2.60142 -4.617117,-4.063063 -0.130592,-1.207974 8.253827,-7.764142 9.603604,-7.756757 z"
       id="path3734"
       inkscape:connector-curvature="0"
       sodipodi:nodetypes="sccsscssss" />
    <path
       style="opacity:1;fill:#4d4d4d;stroke:#4d4d4d;stroke-width:1px;stroke-linecap:butt;stroke-linejoin:miter;stroke-opacity:1"
       d="m 46.171171,81.261261 c 4.617117,-0.738739 26.555701,10.639984 26.77928,20.500009 0.142902,6.30212 -13.297298,19.76125 -18.283784,19.57657 6.648649,-5.35586 5.760515,-13.19602 6.833333,-16.25225 0.650107,-1.85201 2.89849,-0.72683 2.77027,-2.77027 C 64.129241,100.06775 62.070341,101.27675 61.5,100.28378 59.859932,97.428396 60.022522,84.585585 46.171171,81.261261 Z"
       id="path3732"
       inkscape:connector-curvature="0"
       sodipodi:nodetypes="cscsssc" />
    <ellipse
       style="opacity:1;fill:#808080;stroke:#808080;stroke-opacity:1"
       id="path3736"
       ry="2.5922408"
       rx="2.6554663"
       cy="137.49294"
       cx="47.991695" />
    <rect
       style="opacity:1;fill:#808080;stroke:#808080;stroke-opacity:1"
       id="rect3756"
       width="0.94838333"
       height="95.129044"
       x="47.529488"
       y="38.479671"
       ry="0.94838083" />
    <path
       style="opacity:1;fill:#cccccc;fill-opacity:1;stroke:#cccccc;stroke-width:1px;stroke-linecap:butt;stroke-linejoin:miter;stroke-opacity:1"
       d="M 7.5720722,72.950451 C 8.8754884,60.570832 17.409229,46.784661 38.22973,46.355856 c 11.65129,-0.239962 12.412516,9.231802 23.454955,6.463964 1.771138,-0.443944 2.929882,-3.704363 1.292792,-3.13964 0,0 -3.038339,-1.113283 -0.369369,-3.509009 0,0 3.513526,-0.234377 3.13964,2.585586 0,0 -1.108224,7.120418 -6.648649,10.527027 -9.355365,5.75228 -15.201208,1.282352 -24.932432,-2.954955 C 27.302173,53.339794 11.81982,57.806307 7.5720722,72.950451 Z"
       id="path3728"
       inkscape:connector-curvature="0"
       sodipodi:nodetypes="csssssssc" />
    <path
       style="opacity:1;fill:#808080;stroke:#808080;stroke-width:1px;stroke-linecap:butt;stroke-linejoin:miter;stroke-opacity:1"
       d="m 48,27 c 0,0 -2.015625,7.007813 -4,10 4,0 3.5625,-0.69029 4,-0.690283 C 48.460938,36.317536 48,37 52,37 49.992188,34.007813 48,27 48,27 Z"
       id="path3770"
       inkscape:connector-curvature="0"
       sodipodi:nodetypes="ccccc" />
    <text
       xml:space="preserve"
       style="font-style:normal;font-weight:normal;font-size:40px;line-height:1.25;font-family:sans-serif;letter-spacing:0px;word-spacing:0px;fill:#4d4d4d;fill-opacity:1;stroke:none"
       x="79.799156"
       y="83.226357"
       id="text864"><tspan
         sodipodi:role="line"
         x="79.799156"
         y="83.226357"
         id="tspan870"
         style="font-style:normal;font-variant:normal;font-weight:normal;font-stretch:normal;font-size:42.66666794px;line-height:0;font-family:'Franklin Gothic Heavy';-inkscape-font-specification:'Franklin Gothic Heavy, ';letter-spacing:1.87000012px;fill:#4d4d4d">TATTOO</tspan></text>
    <text
       xml:space="preserve"
       style="font-style:normal;font-weight:normal;font-size:40px;line-height:1.25;font-family:sans-serif;letter-spacing:0px;word-spacing:0px;fill:#808080;fill-opacity:1;stroke:none"
       x="116.97657"
       y="118.71683"
       id="text874"><tspan
         sodipodi:role="line"
         x="116.97657"
         y="118.71683"
         id="tspan876"
         style="font-style:normal;font-variant:normal;font-weight:normal;font-stretch:normal;font-size:32px;font-family:'Agency FB';-inkscape-font-specification:'Agency FB';letter-spacing:15.52998447px;word-spacing:0.00000005px;fill:#808080">PRO</tspan></text>
  </g>
</svg>
